<svg width="512" height="512" viewBox="0 0 512 512" fill="none" xmlns="http://www.w3.org/2000/svg">
<path d="M253.172 69.1716C253.922 68.4214 254.939 68 256 68C257.061 68 258.078 68.4214 258.828 69.1716C259.579 69.9217 260 70.9391 260 72V416C260 417.061 259.579 418.078 258.828 418.828C258.078 419.579 257.061 420 256 420C254.939 420 253.922 419.579 253.172 418.828C252.421 418.078 252 417.061 252 416V72C252 70.9391 252.421 69.9217 253.172 69.1716Z" stroke="black" stroke-width="8"/>
<path d="M213.172 237.172C213.922 236.421 214.939 236 216 236C217.061 236 218.078 236.421 218.828 237.172C219.579 237.922 220 238.939 220 240V248C220 249.061 219.579 250.078 218.828 250.828C218.078 251.579 217.061 252 216 252C214.939 252 213.922 251.579 213.172 250.828C212.421 250.078 212 249.061 212 248V240C212 238.939 212.421 237.922 213.172 237.172Z" stroke="black" stroke-width="8"/>
<path d="M284 160V152C284 150.939 284.421 149.922 285.172 149.172C285.922 148.421 286.939 148 288 148C289.061 148 290.078 148.421 290.828 149.172C291.579 149.922 292 150.939 292 152V160C292 161.061 291.579 162.078 290.828 162.828C290.078 163.579 289.061 164 288 164C286.939 164 285.922 163.579 285.172 162.828C284.421 162.078 284 161.061 284 160Z" stroke="black" stroke-width="8"/>
<path d="M100.201 220.201C105.452 214.95 112.574 212 120 212C127.426 212 134.548 214.95 139.799 220.201C145.05 225.452 148 232.574 148 240C148 247.426 145.05 254.548 139.799 259.799C134.548 265.05 127.426 268 120 268C118.939 268 117.922 267.579 117.172 266.828C116.421 266.078 116 265.061 116 264C116 262.939 116.421 261.922 117.172 261.172C117.922 260.421 118.939 260 120 260C123.956 260 127.822 258.827 131.111 256.629C134.4 254.432 136.964 251.308 138.478 247.654C139.991 243.999 140.387 239.978 139.616 236.098C138.844 232.219 136.939 228.655 134.142 225.858C131.345 223.061 127.781 221.156 123.902 220.384C120.022 219.613 116.001 220.009 112.346 221.522C108.692 223.036 105.568 225.6 103.371 228.889C101.173 232.178 100 236.044 100 240C100 241.061 99.5786 242.078 98.8284 242.828C98.0783 243.579 97.0609 244 96 244C94.9391 244 93.9217 243.579 93.1716 242.828C92.4214 242.078 92 241.061 92 240C92 232.574 94.95 225.452 100.201 220.201Z" stroke="black" stroke-width="8"/>
<path d="M370.828 290.828C370.078 291.579 369.061 292 368 292C360.574 292 353.452 289.05 348.201 283.799C342.95 278.548 340 271.426 340 264C340 256.574 342.95 249.452 348.201 244.201C353.452 238.95 360.574 236 368 236C369.061 236 370.078 236.421 370.828 237.172C371.579 237.922 372 238.939 372 240C372 241.061 371.579 242.078 370.828 242.828C370.078 243.579 369.061 244 368 244C362.696 244 357.609 246.107 353.858 249.858C350.107 253.609 348 258.696 348 264C348 269.304 350.107 274.391 353.858 278.142C357.609 281.893 362.696 284 368 284C369.061 284 370.078 284.421 370.828 285.172C371.579 285.922 372 286.939 372 288C372 289.061 371.579 290.078 370.828 290.828Z" stroke="black" stroke-width="8"/>
<path d="M288 316H296C297.061 316 298.078 316.421 298.828 317.172C299.579 317.922 300 318.939 300 320C300 321.061 299.579 322.078 298.828 322.828C298.078 323.579 297.061 324 296 324H288C286.939 324 285.922 323.579 285.172 322.828C284.421 322.078 284 321.061 284 320C284 318.939 284.421 317.922 285.172 317.172C285.922 316.421 286.939 316 288 316Z" stroke="black" stroke-width="8"/>
<path d="M322.22 227.328L322.219 227.329L319.602 229.077C319.601 229.077 319.6 229.078 319.598 229.079C313.565 233.09 308.617 238.532 305.197 244.92C301.778 251.309 299.992 258.444 300 265.69V272C300 273.061 299.579 274.078 298.828 274.828C298.078 275.579 297.061 276 296 276C294.939 276 293.922 275.579 293.172 274.828C292.421 274.078 292 273.061 292 272L292 265.688L292 265.683C291.99 257.123 294.099 248.693 298.138 241.145C302.178 233.597 308.022 227.167 315.151 222.427L315.157 222.423L317.78 220.672C318.217 220.38 318.707 220.177 319.223 220.075C319.738 219.973 320.268 219.974 320.784 220.077C321.299 220.179 321.789 220.383 322.225 220.675C322.662 220.967 323.037 221.343 323.328 221.78C323.62 222.217 323.823 222.707 323.925 223.222C324.027 223.738 324.026 224.268 323.924 224.784C323.821 225.299 323.617 225.789 323.325 226.225C323.033 226.662 322.657 227.037 322.22 227.328Z" stroke="black" stroke-width="8"/>
<path d="M301.172 82.8284C300.421 82.0783 300 81.0609 300 80C300 74.6957 297.893 69.6086 294.142 65.8579C290.391 62.1071 285.304 60 280 60C278.939 60 277.922 59.5786 277.172 58.8284C276.421 58.0783 276 57.0609 276 56C276 54.9391 276.421 53.9217 277.172 53.1716C277.922 52.4214 278.939 52 280 52C287.426 52 294.548 54.95 299.799 60.201C305.05 65.452 308 72.5739 308 80C308 81.0609 307.579 82.0783 306.828 82.8284C306.078 83.5786 305.061 84 304 84C302.939 84 301.922 83.5786 301.172 82.8284Z" stroke="black" stroke-width="8"/>
<path d="M170.828 354.828C170.078 355.579 169.061 356 168 356C164.817 356 161.765 357.264 159.515 359.515C157.264 361.765 156 364.817 156 368C156 371.183 157.264 374.235 159.515 376.485C161.765 378.736 164.817 380 168 380C169.061 380 170.078 380.421 170.828 381.172C171.579 381.922 172 382.939 172 384C172 385.061 171.579 386.078 170.828 386.828C170.078 387.579 169.061 388 168 388C162.696 388 157.609 385.893 153.858 382.142C150.107 378.391 148 373.304 148 368C148 362.696 150.107 357.609 153.858 353.858C157.609 350.107 162.696 348 168 348C169.061 348 170.078 348.421 170.828 349.172C171.579 349.922 172 350.939 172 352C172 353.061 171.579 354.078 170.828 354.828Z" stroke="black" stroke-width="8"/>
<mask id="path-10-inside-1" fill="white">
<path d="M464 432C456.926 432.027 450.061 434.396 444.477 438.738C438.892 443.081 434.904 449.151 433.136 456H360V421.672C370.246 418.621 379.404 412.698 386.388 404.604C393.373 396.509 397.891 386.583 399.408 376C399.608 376 399.8 376 400 376C407.445 376.017 414.792 374.299 421.457 370.98C428.121 367.662 433.921 362.835 438.394 356.883C442.867 350.932 445.891 344.019 447.225 336.694C448.559 329.37 448.167 321.835 446.08 314.688C454.268 307.265 460.806 298.205 465.271 288.096C469.736 277.986 472.028 267.052 472 256C471.98 241.108 467.803 226.518 459.94 213.871C452.078 201.225 440.841 191.023 427.496 184.416C434.077 174.748 438.202 163.622 439.512 152H464C466.122 152 468.157 151.157 469.657 149.657C471.157 148.157 472 146.122 472 144V78.864C479.541 76.9168 486.113 72.2862 490.485 65.8399C494.856 59.3937 496.726 51.5745 495.745 43.848C494.764 36.1215 490.998 29.0181 485.154 23.8694C479.31 18.7207 471.789 15.8801 464 15.8801C456.211 15.8801 448.69 18.7207 442.846 23.8694C437.002 29.0181 433.236 36.1215 432.255 43.848C431.274 51.5745 433.144 59.3937 437.515 65.8399C441.887 72.2862 448.459 76.9168 456 78.864V136H439.528C438.434 125.872 435.195 116.093 430.026 107.315C424.857 98.5363 417.877 90.9602 409.551 85.0909C401.224 79.2216 391.743 75.1939 381.738 73.2759C371.733 71.358 361.435 71.5939 351.528 73.968C351.432 72.856 351.488 71.76 351.328 70.648C349.214 56.645 342.536 43.7318 332.33 33.9137C322.124 24.0956 308.962 17.9221 294.888 16.352C281.377 14.8611 267.745 17.7497 256 24.592C244.248 17.7456 230.607 14.857 217.088 16.352C202.743 17.921 189.347 24.2856 179.069 34.4153C168.791 44.5451 162.233 57.8471 160.456 72.168C160.384 72.76 160.376 73.344 160.32 73.936C154.973 72.6636 149.496 72.0139 144 72V48C144 45.8783 143.157 43.8434 141.657 42.3431C140.157 40.8428 138.122 40 136 40H78.864C76.9168 32.4587 72.2862 25.8865 65.8399 21.5152C59.3937 17.1439 51.5745 15.2736 43.848 16.255C36.1215 17.2364 29.0181 21.0021 23.8694 26.8461C18.7207 32.6902 15.8801 40.2114 15.8801 48C15.8801 55.7886 18.7207 63.3098 23.8694 69.1539C29.0181 74.9979 36.1215 78.7635 43.848 79.7449C51.5745 80.7263 59.3937 78.8561 65.8399 74.4848C72.2862 70.1135 76.9168 63.5413 78.864 56H128V73.856C116.573 76.4384 105.951 81.7765 97.0593 89.4051C88.1681 97.0338 81.2776 106.721 76.9886 117.623C72.6996 128.525 71.1422 140.311 72.4521 151.953C73.762 163.595 77.8995 174.74 84.504 184.416C71.1585 191.023 59.9221 201.225 52.0596 213.871C44.197 226.518 40.0205 241.108 40 256C39.9746 267.052 42.2684 277.987 46.7332 288.098C51.198 298.208 57.7344 307.27 65.92 314.696C64.6564 319.018 64.01 323.497 64 328H48C45.8783 328 43.8434 328.843 42.3431 330.343C40.8428 331.843 40 333.878 40 336V433.136C32.4587 435.083 25.8865 439.714 21.5152 446.16C17.1439 452.606 15.2736 460.426 16.255 468.152C17.2364 475.879 21.0021 482.982 26.8461 488.131C32.6902 493.279 40.2114 496.12 48 496.12C55.7886 496.12 63.3098 493.279 69.1539 488.131C74.9979 482.982 78.7635 475.879 79.7449 468.152C80.7263 460.426 78.8561 452.606 74.4848 446.16C70.1135 439.714 63.5413 435.083 56 433.136V344H66.8C70.1056 353.35 76.2259 361.446 84.3196 367.176C92.4134 372.906 102.083 375.989 112 376C112.216 376 112.392 375.944 112.608 375.944C113.742 383.924 116.587 391.565 120.95 398.343C125.313 405.121 131.09 410.875 137.884 415.211C144.679 419.548 152.33 422.364 160.315 423.467C168.3 424.569 176.428 423.933 184.144 421.6C184.144 422.4 184 423.2 184 424C184 443.096 191.586 461.409 205.088 474.912C218.591 488.414 236.904 496 256 496C275.096 496 293.409 488.414 306.912 474.912C320.414 461.409 328 443.096 328 424C328 423.2 327.888 422.4 327.864 421.6C333.096 423.187 338.533 423.995 344 424V464C344 466.122 344.843 468.157 346.343 469.657C347.843 471.157 349.878 472 352 472H433.136C434.642 477.78 437.74 483.023 442.076 487.131C446.412 491.24 451.813 494.051 457.666 495.244C463.519 496.437 469.59 495.966 475.188 493.882C480.787 491.799 485.689 488.188 489.338 483.458C492.987 478.729 495.237 473.071 495.832 467.127C496.428 461.183 495.344 455.192 492.706 449.833C490.067 444.474 485.978 439.962 480.904 436.81C475.83 433.657 469.974 431.991 464 432ZM448 48C448 44.8355 448.938 41.7421 450.696 39.1109C452.455 36.4797 454.953 34.4289 457.877 33.2179C460.801 32.0069 464.018 31.6901 467.121 32.3074C470.225 32.9248 473.076 34.4486 475.314 36.6863C477.551 38.9239 479.075 41.7749 479.693 44.8785C480.31 47.9822 479.993 51.1993 478.782 54.1229C477.571 57.0465 475.52 59.5454 472.889 61.3035C470.258 63.0616 467.164 64 464 64C459.757 64 455.687 62.3143 452.686 59.3137C449.686 56.3131 448 52.2435 448 48ZM48 64C44.8355 64 41.7421 63.0616 39.1109 61.3035C36.4797 59.5454 34.4289 57.0465 33.2179 54.1229C32.0069 51.1993 31.6901 47.9822 32.3074 44.8785C32.9248 41.7749 34.4486 38.9239 36.6863 36.6863C38.9239 34.4486 41.7749 32.9248 44.8785 32.3074C47.9822 31.6901 51.1993 32.0069 54.1229 33.2179C57.0465 34.4289 59.5454 36.4797 61.3035 39.1109C63.0616 41.7421 64 44.8355 64 48C64 52.2435 62.3143 56.3131 59.3137 59.3137C56.3131 62.3143 52.2435 64 48 64ZM64 464C64 467.164 63.0616 470.258 61.3035 472.889C59.5454 475.52 57.0465 477.571 54.1229 478.782C51.1993 479.993 47.9822 480.31 44.8785 479.693C41.7749 479.075 38.9239 477.551 36.6863 475.314C34.4486 473.076 32.9248 470.225 32.3074 467.121C31.6901 464.018 32.0069 460.801 33.2179 457.877C34.4289 454.953 36.4797 452.455 39.1109 450.696C41.7421 448.938 44.8355 448 48 448C52.2435 448 56.3131 449.686 59.3137 452.686C62.3143 455.687 64 459.757 64 464ZM323.2 402.152C322.945 401.944 322.678 401.752 322.4 401.576C317.504 398.469 313.353 394.321 310.242 389.428C307.131 384.535 305.136 379.016 304.4 373.264C304.137 371.522 304.003 369.762 304 368C304 365.878 303.157 363.843 301.657 362.343C300.157 360.843 298.122 360 296 360C293.878 360 291.843 360.843 290.343 362.343C288.843 363.843 288 365.878 288 368C287.993 370.511 288.173 373.019 288.536 375.504C289.515 382.928 291.995 390.075 295.824 396.51C299.653 402.945 304.751 408.534 310.808 412.936C311.58 416.574 311.979 420.281 312 424C312 438.852 306.1 453.096 295.598 463.598C285.096 474.1 270.852 480 256 480C241.148 480 226.904 474.1 216.402 463.598C205.9 453.096 200 438.852 200 424C200.023 420.306 200.417 416.623 201.176 413.008C208.244 407.822 213.993 401.046 217.958 393.227C221.923 385.408 223.993 376.767 224 368C224 365.878 223.157 363.843 221.657 362.343C220.157 360.843 218.122 360 216 360C213.878 360 211.843 360.843 210.343 362.343C208.843 363.843 208 365.878 208 368C207.919 373.253 206.803 378.438 204.718 383.26C202.633 388.082 199.618 392.446 195.846 396.103C192.074 399.759 187.619 402.637 182.735 404.572C177.85 406.507 172.633 407.461 167.38 407.38C162.127 407.299 156.942 406.183 152.12 404.098C147.298 402.013 142.934 398.998 139.277 395.226C135.621 391.454 132.743 386.999 130.808 382.115C128.873 377.23 127.919 372.013 128 366.76C128.67 356.135 133.409 346.178 141.233 338.958C149.058 331.739 159.364 327.814 170.008 328H184C194.605 327.987 204.772 323.769 212.27 316.27C219.769 308.772 223.987 298.605 224 288V280C224 277.878 223.157 275.843 221.657 274.343C220.157 272.843 218.122 272 216 272C213.878 272 211.843 272.843 210.343 274.343C208.843 275.843 208 277.878 208 280V288C208 294.365 205.471 300.47 200.971 304.971C196.47 309.471 190.365 312 184 312H170.008C156.318 311.905 143.039 316.67 132.534 325.448C122.029 334.226 114.979 346.447 112.64 359.936C112.408 359.936 112.232 360 112 360C106.408 359.982 100.919 358.495 96.0831 355.687C91.2474 352.878 87.2349 348.848 84.448 344H96C98.1217 344 100.157 343.157 101.657 341.657C103.157 340.157 104 338.122 104 336C104 333.878 103.157 331.843 101.657 330.343C100.157 328.843 98.1217 328 96 328H80C80 319.513 83.3714 311.374 89.3726 305.373C95.3737 299.371 103.513 296 112 296C114.122 296 116.157 295.157 117.657 293.657C119.157 292.157 120 290.122 120 288C120 285.878 119.157 283.843 117.657 282.343C116.157 280.843 114.122 280 112 280C104.467 280.007 97.0422 281.79 90.3273 285.204C83.6124 288.618 77.7967 293.566 73.352 299.648C62.1754 287.868 55.9619 272.238 56 256C56.0205 242.547 60.2753 229.441 68.1613 218.541C76.0472 207.641 87.1642 199.5 99.936 195.272C100.064 195.224 100.192 195.184 100.32 195.128C111.163 191.603 122.752 191.046 133.883 193.515C145.014 195.984 155.281 201.389 163.616 209.168C164.379 209.911 165.284 210.493 166.275 210.882C167.267 211.271 168.326 211.457 169.391 211.431C170.456 211.405 171.505 211.167 172.476 210.73C173.447 210.293 174.322 209.666 175.048 208.887C175.774 208.108 176.337 207.191 176.704 206.191C177.071 205.192 177.235 204.128 177.186 203.065C177.137 202.001 176.876 200.957 176.418 199.995C175.96 199.034 175.315 198.173 174.52 197.464C164.713 188.266 152.729 181.712 139.694 178.417C126.659 175.121 113 175.192 100 178.624C94.3534 171.451 90.5479 163.005 88.9154 154.024C87.283 145.042 87.8733 135.798 90.6348 127.096C93.3963 118.395 98.2451 110.502 104.758 104.106C111.271 97.7094 119.25 93.0039 128 90.4V144C128 146.122 128.843 148.157 130.343 149.657C131.843 151.157 133.878 152 136 152C138.122 152 140.157 151.157 141.657 149.657C143.157 148.157 144 146.122 144 144V88C149.772 87.9955 155.509 88.8999 161 90.68C162.836 101.463 167.396 111.599 174.248 120.125C181.1 128.652 190.016 135.287 200.152 139.4C204.685 141.054 208.618 144.029 211.443 147.94C214.268 151.852 215.855 156.521 216 161.344V176C216 178.122 216.843 180.157 218.343 181.657C219.843 183.157 221.878 184 224 184C226.122 184 228.157 183.157 229.657 181.657C231.157 180.157 232 178.122 232 176V161.344C231.874 153.322 229.339 145.523 224.724 138.961C220.109 132.398 213.627 127.375 206.12 124.544C196.18 120.566 187.855 113.378 182.469 104.125C177.084 94.8711 174.947 84.0824 176.398 73.4745C177.849 62.8665 182.805 53.0482 190.478 45.581C198.151 38.1138 208.1 33.4263 218.744 32.264C230.295 30.9726 241.919 33.9519 251.424 40.64C252.766 41.5761 254.363 42.078 256 42.078C257.637 42.078 259.234 41.5761 260.576 40.64C266.021 36.8267 272.199 34.1861 278.719 32.8855C285.238 31.585 291.956 31.6528 298.448 33.0846C304.94 34.5165 311.064 37.2812 316.431 41.2036C321.798 45.1259 326.292 50.1204 329.628 55.8706C332.964 61.6207 335.069 68.0011 335.81 74.6075C336.551 81.2138 335.912 87.9021 333.933 94.2484C331.954 100.595 328.678 106.461 324.313 111.475C319.948 116.489 314.589 120.541 308.576 123.376C306.659 124.288 305.183 125.925 304.473 127.925C303.762 129.926 303.876 132.127 304.788 134.044C305.7 135.961 307.337 137.437 309.337 138.147C311.338 138.858 313.539 138.744 315.456 137.832C324.758 133.42 332.855 126.823 339.055 118.604C345.256 110.385 349.376 100.788 351.064 90.632C356.537 88.8741 362.252 87.986 368 88C381.455 88.0158 394.454 92.8753 404.62 101.689C414.785 110.504 421.438 122.683 423.36 136H368C365.878 136 363.843 136.843 362.343 138.343C360.843 139.843 360 141.878 360 144C360 146.122 360.843 148.157 362.343 149.657C363.843 151.157 365.878 152 368 152H423.368C421.975 161.717 418.055 170.898 412 178.624C399.002 175.195 385.347 175.126 372.315 178.421C359.283 181.716 347.302 188.269 337.496 197.464C336.701 198.173 336.056 199.034 335.598 199.995C335.141 200.957 334.879 202.001 334.83 203.065C334.781 204.128 334.945 205.192 335.312 206.191C335.679 207.191 336.242 208.108 336.968 208.887C337.694 209.666 338.569 210.293 339.54 210.73C340.511 211.167 341.56 211.405 342.625 211.431C343.69 211.457 344.749 211.271 345.741 210.882C346.732 210.493 347.637 209.911 348.4 209.168C356.735 201.389 367.002 195.984 378.133 193.515C389.264 191.046 400.853 191.603 411.696 195.128C411.824 195.184 411.952 195.224 412.088 195.272C424.855 199.505 435.966 207.648 443.847 218.548C451.728 229.447 455.98 242.55 456 256C456.036 272.239 449.819 287.869 438.64 299.648C434.197 293.566 428.383 288.617 421.67 285.203C414.956 281.789 407.532 280.007 400 280C397.878 280 395.843 280.843 394.343 282.343C392.843 283.843 392 285.878 392 288C392 290.122 392.843 292.157 394.343 293.657C395.843 295.157 397.878 296 400 296C408.487 296 416.626 299.371 422.627 305.373C428.629 311.374 432 319.513 432 328C432 336.487 428.629 344.626 422.627 350.627C416.626 356.629 408.487 360 400 360C399.776 360 399.608 359.944 399.384 359.936C397.037 346.448 389.983 334.23 379.476 325.453C368.969 316.676 355.69 311.909 342 312H328C325.878 312 323.843 312.843 322.343 314.343C320.843 315.843 320 317.878 320 320C320 322.122 320.843 324.157 322.343 325.657C323.843 327.157 325.878 328 328 328H342C352.647 327.821 362.953 331.752 370.776 338.977C378.598 346.202 383.335 356.164 384 366.792C384 366.856 384 366.92 384 366.984C384 367.048 384 367.128 384 367.2V367.24C384.169 375.154 381.976 382.939 377.701 389.602C373.427 396.264 367.264 401.503 360 404.648V376C360 373.878 359.157 371.843 357.657 370.343C356.157 368.843 354.122 368 352 368C349.878 368 347.843 368.843 346.343 370.343C344.843 371.843 344 373.878 344 376V408C336.66 408.009 329.46 405.985 323.2 402.152ZM464 480C460.836 480 457.742 479.062 455.111 477.304C452.48 475.545 450.429 473.047 449.218 470.123C448.007 467.199 447.69 463.982 448.307 460.879C448.925 457.775 450.449 454.924 452.686 452.686C454.924 450.449 457.775 448.925 460.879 448.307C463.982 447.69 467.199 448.007 470.123 449.218C473.047 450.429 475.545 452.48 477.304 455.111C479.062 457.742 480 460.836 480 464C480 468.243 478.314 472.313 475.314 475.314C472.313 478.314 468.243 480 464 480Z"/>
</mask>
<path d="M464 432C456.926 432.027 450.061 434.396 444.477 438.738C438.892 443.081 434.904 449.151 433.136 456H360V421.672C370.246 418.621 379.404 412.698 386.388 404.604C393.373 396.509 397.891 386.583 399.408 376C399.608 376 399.8 376 400 376C407.445 376.017 414.792 374.299 421.457 370.98C428.121 367.662 433.921 362.835 438.394 356.883C442.867 350.932 445.891 344.019 447.225 336.694C448.559 329.37 448.167 321.835 446.08 314.688C454.268 307.265 460.806 298.205 465.271 288.096C469.736 277.986 472.028 267.052 472 256C471.98 241.108 467.803 226.518 459.94 213.871C452.078 201.225 440.841 191.023 427.496 184.416C434.077 174.748 438.202 163.622 439.512 152H464C466.122 152 468.157 151.157 469.657 149.657C471.157 148.157 472 146.122 472 144V78.864C479.541 76.9168 486.113 72.2862 490.485 65.8399C494.856 59.3937 496.726 51.5745 495.745 43.848C494.764 36.1215 490.998 29.0181 485.154 23.8694C479.31 18.7207 471.789 15.8801 464 15.8801C456.211 15.8801 448.69 18.7207 442.846 23.8694C437.002 29.0181 433.236 36.1215 432.255 43.848C431.274 51.5745 433.144 59.3937 437.515 65.8399C441.887 72.2862 448.459 76.9168 456 78.864V136H439.528C438.434 125.872 435.195 116.093 430.026 107.315C424.857 98.5363 417.877 90.9602 409.551 85.0909C401.224 79.2216 391.743 75.1939 381.738 73.2759C371.733 71.358 361.435 71.5939 351.528 73.968C351.432 72.856 351.488 71.76 351.328 70.648C349.214 56.645 342.536 43.7318 332.33 33.9137C322.124 24.0956 308.962 17.9221 294.888 16.352C281.377 14.8611 267.745 17.7497 256 24.592C244.248 17.7456 230.607 14.857 217.088 16.352C202.743 17.921 189.347 24.2856 179.069 34.4153C168.791 44.5451 162.233 57.8471 160.456 72.168C160.384 72.76 160.376 73.344 160.32 73.936C154.973 72.6636 149.496 72.0139 144 72V48C144 45.8783 143.157 43.8434 141.657 42.3431C140.157 40.8428 138.122 40 136 40H78.864C76.9168 32.4587 72.2862 25.8865 65.8399 21.5152C59.3937 17.1439 51.5745 15.2736 43.848 16.255C36.1215 17.2364 29.0181 21.0021 23.8694 26.8461C18.7207 32.6902 15.8801 40.2114 15.8801 48C15.8801 55.7886 18.7207 63.3098 23.8694 69.1539C29.0181 74.9979 36.1215 78.7635 43.848 79.7449C51.5745 80.7263 59.3937 78.8561 65.8399 74.4848C72.2862 70.1135 76.9168 63.5413 78.864 56H128V73.856C116.573 76.4384 105.951 81.7765 97.0593 89.4051C88.1681 97.0338 81.2776 106.721 76.9886 117.623C72.6996 128.525 71.1422 140.311 72.4521 151.953C73.762 163.595 77.8995 174.74 84.504 184.416C71.1585 191.023 59.9221 201.225 52.0596 213.871C44.197 226.518 40.0205 241.108 40 256C39.9746 267.052 42.2684 277.987 46.7332 288.098C51.198 298.208 57.7344 307.27 65.92 314.696C64.6564 319.018 64.01 323.497 64 328H48C45.8783 328 43.8434 328.843 42.3431 330.343C40.8428 331.843 40 333.878 40 336V433.136C32.4587 435.083 25.8865 439.714 21.5152 446.16C17.1439 452.606 15.2736 460.426 16.255 468.152C17.2364 475.879 21.0021 482.982 26.8461 488.131C32.6902 493.279 40.2114 496.12 48 496.12C55.7886 496.12 63.3098 493.279 69.1539 488.131C74.9979 482.982 78.7635 475.879 79.7449 468.152C80.7263 460.426 78.8561 452.606 74.4848 446.16C70.1135 439.714 63.5413 435.083 56 433.136V344H66.8C70.1056 353.35 76.2259 361.446 84.3196 367.176C92.4134 372.906 102.083 375.989 112 376C112.216 376 112.392 375.944 112.608 375.944C113.742 383.924 116.587 391.565 120.95 398.343C125.313 405.121 131.09 410.875 137.884 415.211C144.679 419.548 152.33 422.364 160.315 423.467C168.3 424.569 176.428 423.933 184.144 421.6C184.144 422.4 184 423.2 184 424C184 443.096 191.586 461.409 205.088 474.912C218.591 488.414 236.904 496 256 496C275.096 496 293.409 488.414 306.912 474.912C320.414 461.409 328 443.096 328 424C328 423.2 327.888 422.4 327.864 421.6C333.096 423.187 338.533 423.995 344 424V464C344 466.122 344.843 468.157 346.343 469.657C347.843 471.157 349.878 472 352 472H433.136C434.642 477.78 437.74 483.023 442.076 487.131C446.412 491.24 451.813 494.051 457.666 495.244C463.519 496.437 469.59 495.966 475.188 493.882C480.787 491.799 485.689 488.188 489.338 483.458C492.987 478.729 495.237 473.071 495.832 467.127C496.428 461.183 495.344 455.192 492.706 449.833C490.067 444.474 485.978 439.962 480.904 436.81C475.83 433.657 469.974 431.991 464 432ZM448 48C448 44.8355 448.938 41.7421 450.696 39.1109C452.455 36.4797 454.953 34.4289 457.877 33.2179C460.801 32.0069 464.018 31.6901 467.121 32.3074C470.225 32.9248 473.076 34.4486 475.314 36.6863C477.551 38.9239 479.075 41.7749 479.693 44.8785C480.31 47.9822 479.993 51.1993 478.782 54.1229C477.571 57.0465 475.52 59.5454 472.889 61.3035C470.258 63.0616 467.164 64 464 64C459.757 64 455.687 62.3143 452.686 59.3137C449.686 56.3131 448 52.2435 448 48ZM48 64C44.8355 64 41.7421 63.0616 39.1109 61.3035C36.4797 59.5454 34.4289 57.0465 33.2179 54.1229C32.0069 51.1993 31.6901 47.9822 32.3074 44.8785C32.9248 41.7749 34.4486 38.9239 36.6863 36.6863C38.9239 34.4486 41.7749 32.9248 44.8785 32.3074C47.9822 31.6901 51.1993 32.0069 54.1229 33.2179C57.0465 34.4289 59.5454 36.4797 61.3035 39.1109C63.0616 41.7421 64 44.8355 64 48C64 52.2435 62.3143 56.3131 59.3137 59.3137C56.3131 62.3143 52.2435 64 48 64ZM64 464C64 467.164 63.0616 470.258 61.3035 472.889C59.5454 475.52 57.0465 477.571 54.1229 478.782C51.1993 479.993 47.9822 480.31 44.8785 479.693C41.7749 479.075 38.9239 477.551 36.6863 475.314C34.4486 473.076 32.9248 470.225 32.3074 467.121C31.6901 464.018 32.0069 460.801 33.2179 457.877C34.4289 454.953 36.4797 452.455 39.1109 450.696C41.7421 448.938 44.8355 448 48 448C52.2435 448 56.3131 449.686 59.3137 452.686C62.3143 455.687 64 459.757 64 464ZM323.2 402.152C322.945 401.944 322.678 401.752 322.4 401.576C317.504 398.469 313.353 394.321 310.242 389.428C307.131 384.535 305.136 379.016 304.4 373.264C304.137 371.522 304.003 369.762 304 368C304 365.878 303.157 363.843 301.657 362.343C300.157 360.843 298.122 360 296 360C293.878 360 291.843 360.843 290.343 362.343C288.843 363.843 288 365.878 288 368C287.993 370.511 288.173 373.019 288.536 375.504C289.515 382.928 291.995 390.075 295.824 396.51C299.653 402.945 304.751 408.534 310.808 412.936C311.58 416.574 311.979 420.281 312 424C312 438.852 306.1 453.096 295.598 463.598C285.096 474.1 270.852 480 256 480C241.148 480 226.904 474.1 216.402 463.598C205.9 453.096 200 438.852 200 424C200.023 420.306 200.417 416.623 201.176 413.008C208.244 407.822 213.993 401.046 217.958 393.227C221.923 385.408 223.993 376.767 224 368C224 365.878 223.157 363.843 221.657 362.343C220.157 360.843 218.122 360 216 360C213.878 360 211.843 360.843 210.343 362.343C208.843 363.843 208 365.878 208 368C207.919 373.253 206.803 378.438 204.718 383.26C202.633 388.082 199.618 392.446 195.846 396.103C192.074 399.759 187.619 402.637 182.735 404.572C177.85 406.507 172.633 407.461 167.38 407.38C162.127 407.299 156.942 406.183 152.12 404.098C147.298 402.013 142.934 398.998 139.277 395.226C135.621 391.454 132.743 386.999 130.808 382.115C128.873 377.23 127.919 372.013 128 366.76C128.67 356.135 133.409 346.178 141.233 338.958C149.058 331.739 159.364 327.814 170.008 328H184C194.605 327.987 204.772 323.769 212.27 316.27C219.769 308.772 223.987 298.605 224 288V280C224 277.878 223.157 275.843 221.657 274.343C220.157 272.843 218.122 272 216 272C213.878 272 211.843 272.843 210.343 274.343C208.843 275.843 208 277.878 208 280V288C208 294.365 205.471 300.47 200.971 304.971C196.47 309.471 190.365 312 184 312H170.008C156.318 311.905 143.039 316.67 132.534 325.448C122.029 334.226 114.979 346.447 112.64 359.936C112.408 359.936 112.232 360 112 360C106.408 359.982 100.919 358.495 96.0831 355.687C91.2474 352.878 87.2349 348.848 84.448 344H96C98.1217 344 100.157 343.157 101.657 341.657C103.157 340.157 104 338.122 104 336C104 333.878 103.157 331.843 101.657 330.343C100.157 328.843 98.1217 328 96 328H80C80 319.513 83.3714 311.374 89.3726 305.373C95.3737 299.371 103.513 296 112 296C114.122 296 116.157 295.157 117.657 293.657C119.157 292.157 120 290.122 120 288C120 285.878 119.157 283.843 117.657 282.343C116.157 280.843 114.122 280 112 280C104.467 280.007 97.0422 281.79 90.3273 285.204C83.6124 288.618 77.7967 293.566 73.352 299.648C62.1754 287.868 55.9619 272.238 56 256C56.0205 242.547 60.2753 229.441 68.1613 218.541C76.0472 207.641 87.1642 199.5 99.936 195.272C100.064 195.224 100.192 195.184 100.32 195.128C111.163 191.603 122.752 191.046 133.883 193.515C145.014 195.984 155.281 201.389 163.616 209.168C164.379 209.911 165.284 210.493 166.275 210.882C167.267 211.271 168.326 211.457 169.391 211.431C170.456 211.405 171.505 211.167 172.476 210.73C173.447 210.293 174.322 209.666 175.048 208.887C175.774 208.108 176.337 207.191 176.704 206.191C177.071 205.192 177.235 204.128 177.186 203.065C177.137 202.001 176.876 200.957 176.418 199.995C175.96 199.034 175.315 198.173 174.52 197.464C164.713 188.266 152.729 181.712 139.694 178.417C126.659 175.121 113 175.192 100 178.624C94.3534 171.451 90.5479 163.005 88.9154 154.024C87.283 145.042 87.8733 135.798 90.6348 127.096C93.3963 118.395 98.2451 110.502 104.758 104.106C111.271 97.7094 119.25 93.0039 128 90.4V144C128 146.122 128.843 148.157 130.343 149.657C131.843 151.157 133.878 152 136 152C138.122 152 140.157 151.157 141.657 149.657C143.157 148.157 144 146.122 144 144V88C149.772 87.9955 155.509 88.8999 161 90.68C162.836 101.463 167.396 111.599 174.248 120.125C181.1 128.652 190.016 135.287 200.152 139.4C204.685 141.054 208.618 144.029 211.443 147.94C214.268 151.852 215.855 156.521 216 161.344V176C216 178.122 216.843 180.157 218.343 181.657C219.843 183.157 221.878 184 224 184C226.122 184 228.157 183.157 229.657 181.657C231.157 180.157 232 178.122 232 176V161.344C231.874 153.322 229.339 145.523 224.724 138.961C220.109 132.398 213.627 127.375 206.12 124.544C196.18 120.566 187.855 113.378 182.469 104.125C177.084 94.8711 174.947 84.0824 176.398 73.4745C177.849 62.8665 182.805 53.0482 190.478 45.581C198.151 38.1138 208.1 33.4263 218.744 32.264C230.295 30.9726 241.919 33.9519 251.424 40.64C252.766 41.5761 254.363 42.078 256 42.078C257.637 42.078 259.234 41.5761 260.576 40.64C266.021 36.8267 272.199 34.1861 278.719 32.8855C285.238 31.585 291.956 31.6528 298.448 33.0846C304.94 34.5165 311.064 37.2812 316.431 41.2036C321.798 45.1259 326.292 50.1204 329.628 55.8706C332.964 61.6207 335.069 68.0011 335.81 74.6075C336.551 81.2138 335.912 87.9021 333.933 94.2484C331.954 100.595 328.678 106.461 324.313 111.475C319.948 116.489 314.589 120.541 308.576 123.376C306.659 124.288 305.183 125.925 304.473 127.925C303.762 129.926 303.876 132.127 304.788 134.044C305.7 135.961 307.337 137.437 309.337 138.147C311.338 138.858 313.539 138.744 315.456 137.832C324.758 133.42 332.855 126.823 339.055 118.604C345.256 110.385 349.376 100.788 351.064 90.632C356.537 88.8741 362.252 87.986 368 88C381.455 88.0158 394.454 92.8753 404.62 101.689C414.785 110.504 421.438 122.683 423.36 136H368C365.878 136 363.843 136.843 362.343 138.343C360.843 139.843 360 141.878 360 144C360 146.122 360.843 148.157 362.343 149.657C363.843 151.157 365.878 152 368 152H423.368C421.975 161.717 418.055 170.898 412 178.624C399.002 175.195 385.347 175.126 372.315 178.421C359.283 181.716 347.302 188.269 337.496 197.464C336.701 198.173 336.056 199.034 335.598 199.995C335.141 200.957 334.879 202.001 334.83 203.065C334.781 204.128 334.945 205.192 335.312 206.191C335.679 207.191 336.242 208.108 336.968 208.887C337.694 209.666 338.569 210.293 339.54 210.73C340.511 211.167 341.56 211.405 342.625 211.431C343.69 211.457 344.749 211.271 345.741 210.882C346.732 210.493 347.637 209.911 348.4 209.168C356.735 201.389 367.002 195.984 378.133 193.515C389.264 191.046 400.853 191.603 411.696 195.128C411.824 195.184 411.952 195.224 412.088 195.272C424.855 199.505 435.966 207.648 443.847 218.548C451.728 229.447 455.98 242.55 456 256C456.036 272.239 449.819 287.869 438.64 299.648C434.197 293.566 428.383 288.617 421.67 285.203C414.956 281.789 407.532 280.007 400 280C397.878 280 395.843 280.843 394.343 282.343C392.843 283.843 392 285.878 392 288C392 290.122 392.843 292.157 394.343 293.657C395.843 295.157 397.878 296 400 296C408.487 296 416.626 299.371 422.627 305.373C428.629 311.374 432 319.513 432 328C432 336.487 428.629 344.626 422.627 350.627C416.626 356.629 408.487 360 400 360C399.776 360 399.608 359.944 399.384 359.936C397.037 346.448 389.983 334.23 379.476 325.453C368.969 316.676 355.69 311.909 342 312H328C325.878 312 323.843 312.843 322.343 314.343C320.843 315.843 320 317.878 320 320C320 322.122 320.843 324.157 322.343 325.657C323.843 327.157 325.878 328 328 328H342C352.647 327.821 362.953 331.752 370.776 338.977C378.598 346.202 383.335 356.164 384 366.792C384 366.856 384 366.92 384 366.984C384 367.048 384 367.128 384 367.2V367.24C384.169 375.154 381.976 382.939 377.701 389.602C373.427 396.264 367.264 401.503 360 404.648V376C360 373.878 359.157 371.843 357.657 370.343C356.157 368.843 354.122 368 352 368C349.878 368 347.843 368.843 346.343 370.343C344.843 371.843 344 373.878 344 376V408C336.66 408.009 329.46 405.985 323.2 402.152ZM464 480C460.836 480 457.742 479.062 455.111 477.304C452.48 475.545 450.429 473.047 449.218 470.123C448.007 467.199 447.69 463.982 448.307 460.879C448.925 457.775 450.449 454.924 452.686 452.686C454.924 450.449 457.775 448.925 460.879 448.307C463.982 447.69 467.199 448.007 470.123 449.218C473.047 450.429 475.545 452.48 477.304 455.111C479.062 457.742 480 460.836 480 464C480 468.243 478.314 472.313 475.314 475.314C472.313 478.314 468.243 480 464 480Z" stroke="black" stroke-width="16" mask="url(#path-10-inside-1)"/>
<path d="M209.858 94.1421C213.609 97.8929 218.696 100 224 100C225.061 100 226.078 100.421 226.828 101.172C227.579 101.922 228 102.939 228 104C228 105.061 227.579 106.078 226.828 106.828C226.078 107.579 225.061 108 224 108C216.574 108 209.452 105.05 204.201 99.799C198.95 94.548 196 87.4261 196 80C196 78.9391 196.421 77.9217 197.172 77.1716C197.922 76.4214 198.939 76 200 76C201.061 76 202.078 76.4214 202.828 77.1716C203.579 77.9217 204 78.9391 204 80C204 85.3043 206.107 90.3914 209.858 94.1421Z" stroke="black" stroke-width="8"/>
<path d="M414.142 233.858C410.391 230.107 405.304 228 400 228C398.939 228 397.922 227.579 397.172 226.828C396.421 226.078 396 225.061 396 224C396 222.939 396.421 221.922 397.172 221.172C397.922 220.421 398.939 220 400 220C407.426 220 414.548 222.95 419.799 228.201C425.05 233.452 428 240.574 428 248C428 249.061 427.579 250.078 426.828 250.828C426.078 251.579 425.061 252 424 252C422.939 252 421.922 251.579 421.172 250.828C420.421 250.078 420 249.061 420 248C420 242.696 417.893 237.609 414.142 233.858Z" stroke="black" stroke-width="8"/>
<path d="M253.172 445.172C253.922 444.421 254.939 444 256 444C257.061 444 258.078 444.421 258.828 445.172C259.579 445.922 260 446.939 260 448V456C260 457.061 259.579 458.078 258.828 458.828C258.078 459.579 257.061 460 256 460C254.939 460 253.922 459.579 253.172 458.828C252.421 458.078 252 457.061 252 456V448C252 446.939 252.421 445.922 253.172 445.172Z" stroke="black" stroke-width="8"/>
</svg>
