<svg width="690" height="706" viewBox="0 0 690 706" fill="none" xmlns="http://www.w3.org/2000/svg">
<path d="M342.172 69.1716C342.922 68.4214 343.939 68 345 68C346.061 68 347.078 68.4214 347.828 69.1716C348.579 69.9217 349 70.9391 349 72V416C349 417.061 348.579 418.078 347.828 418.828C347.078 419.579 346.061 420 345 420C343.939 420 342.922 419.579 342.172 418.828C341.421 418.078 341 417.061 341 416V72C341 70.9391 341.421 69.9217 342.172 69.1716Z" stroke="black" stroke-width="8"/>
<path d="M302.172 237.172C302.922 236.421 303.939 236 305 236C306.061 236 307.078 236.421 307.828 237.172C308.579 237.922 309 238.939 309 240V248C309 249.061 308.579 250.078 307.828 250.828C307.078 251.579 306.061 252 305 252C303.939 252 302.922 251.579 302.172 250.828C301.421 250.078 301 249.061 301 248V240C301 238.939 301.421 237.922 302.172 237.172Z" stroke="black" stroke-width="8"/>
<path d="M373 160V152C373 150.939 373.421 149.922 374.172 149.172C374.922 148.421 375.939 148 377 148C378.061 148 379.078 148.421 379.828 149.172C380.579 149.922 381 150.939 381 152V160C381 161.061 380.579 162.078 379.828 162.828C379.078 163.579 378.061 164 377 164C375.939 164 374.922 163.579 374.172 162.828C373.421 162.078 373 161.061 373 160Z" stroke="black" stroke-width="8"/>
<path d="M189.201 220.201C194.452 214.95 201.574 212 209 212C216.426 212 223.548 214.95 228.799 220.201C234.05 225.452 237 232.574 237 240C237 247.426 234.05 254.548 228.799 259.799C223.548 265.05 216.426 268 209 268C207.939 268 206.922 267.579 206.172 266.828C205.421 266.078 205 265.061 205 264C205 262.939 205.421 261.922 206.172 261.172C206.922 260.421 207.939 260 209 260C212.956 260 216.822 258.827 220.111 256.629C223.4 254.432 225.964 251.308 227.478 247.654C228.991 243.999 229.387 239.978 228.616 236.098C227.844 232.219 225.939 228.655 223.142 225.858C220.345 223.061 216.781 221.156 212.902 220.384C209.022 219.613 205.001 220.009 201.346 221.522C197.692 223.036 194.568 225.6 192.371 228.889C190.173 232.178 189 236.044 189 240C189 241.061 188.579 242.078 187.828 242.828C187.078 243.579 186.061 244 185 244C183.939 244 182.922 243.579 182.172 242.828C181.421 242.078 181 241.061 181 240C181 232.574 183.95 225.452 189.201 220.201Z" stroke="black" stroke-width="8"/>
<path d="M459.828 290.828C459.078 291.579 458.061 292 457 292C449.574 292 442.452 289.05 437.201 283.799C431.95 278.548 429 271.426 429 264C429 256.574 431.95 249.452 437.201 244.201C442.452 238.95 449.574 236 457 236C458.061 236 459.078 236.421 459.828 237.172C460.579 237.922 461 238.939 461 240C461 241.061 460.579 242.078 459.828 242.828C459.078 243.579 458.061 244 457 244C451.696 244 446.609 246.107 442.858 249.858C439.107 253.609 437 258.696 437 264C437 269.304 439.107 274.391 442.858 278.142C446.609 281.893 451.696 284 457 284C458.061 284 459.078 284.421 459.828 285.172C460.579 285.922 461 286.939 461 288C461 289.061 460.579 290.078 459.828 290.828Z" stroke="black" stroke-width="8"/>
<path d="M377 316H385C386.061 316 387.078 316.421 387.828 317.172C388.579 317.922 389 318.939 389 320C389 321.061 388.579 322.078 387.828 322.828C387.078 323.579 386.061 324 385 324H377C375.939 324 374.922 323.579 374.172 322.828C373.421 322.078 373 321.061 373 320C373 318.939 373.421 317.922 374.172 317.172C374.922 316.421 375.939 316 377 316Z" stroke="black" stroke-width="8"/>
<path d="M411.22 227.328L411.219 227.329L408.602 229.077C408.601 229.077 408.6 229.078 408.598 229.079C402.565 233.09 397.617 238.532 394.197 244.92C390.778 251.309 388.992 258.444 389 265.69V272C389 273.061 388.579 274.078 387.828 274.828C387.078 275.579 386.061 276 385 276C383.939 276 382.922 275.579 382.172 274.828C381.421 274.078 381 273.061 381 272V265.688V265.683C380.99 257.123 383.099 248.693 387.138 241.145C391.178 233.597 397.022 227.167 404.151 222.427L404.157 222.423L406.78 220.672C407.217 220.38 407.707 220.177 408.223 220.075C408.738 219.973 409.268 219.974 409.784 220.077C410.299 220.179 410.789 220.383 411.225 220.675C411.662 220.967 412.037 221.343 412.328 221.78C412.62 222.217 412.823 222.707 412.925 223.222C413.027 223.738 413.026 224.268 412.924 224.784C412.821 225.299 412.617 225.789 412.325 226.225C412.033 226.662 411.657 227.037 411.22 227.328Z" stroke="black" stroke-width="8"/>
<path d="M390.172 82.8284C389.421 82.0783 389 81.0609 389 80C389 74.6957 386.893 69.6086 383.142 65.8579C379.391 62.1071 374.304 60 369 60C367.939 60 366.922 59.5786 366.172 58.8284C365.421 58.0783 365 57.0609 365 56C365 54.9391 365.421 53.9217 366.172 53.1716C366.922 52.4214 367.939 52 369 52C376.426 52 383.548 54.95 388.799 60.201C394.05 65.452 397 72.5739 397 80C397 81.0609 396.579 82.0783 395.828 82.8284C395.078 83.5786 394.061 84 393 84C391.939 84 390.922 83.5786 390.172 82.8284Z" stroke="black" stroke-width="8"/>
<path d="M259.828 354.828C259.078 355.579 258.061 356 257 356C253.817 356 250.765 357.264 248.515 359.515C246.264 361.765 245 364.817 245 368C245 371.183 246.264 374.235 248.515 376.485C250.765 378.736 253.817 380 257 380C258.061 380 259.078 380.421 259.828 381.172C260.579 381.922 261 382.939 261 384C261 385.061 260.579 386.078 259.828 386.828C259.078 387.579 258.061 388 257 388C251.696 388 246.609 385.893 242.858 382.142C239.107 378.391 237 373.304 237 368C237 362.696 239.107 357.609 242.858 353.858C246.609 350.107 251.696 348 257 348C258.061 348 259.078 348.421 259.828 349.172C260.579 349.922 261 350.939 261 352C261 353.061 260.579 354.078 259.828 354.828Z" stroke="black" stroke-width="8"/>
<mask id="mask0" mask-type="alpha" maskUnits="userSpaceOnUse" x="104" y="15" width="481" height="482">
<path d="M553 432C545.926 432.027 539.061 434.396 533.477 438.738C527.892 443.081 523.904 449.151 522.136 456H449V421.672C459.246 418.621 468.404 412.698 475.388 404.604C482.373 396.509 486.891 386.583 488.408 376C488.608 376 488.8 376 489 376C496.445 376.017 503.792 374.299 510.457 370.98C517.121 367.662 522.921 362.835 527.394 356.883C531.867 350.932 534.891 344.019 536.225 336.694C537.559 329.37 537.167 321.835 535.08 314.688C543.268 307.265 549.806 298.205 554.271 288.096C558.736 277.986 561.028 267.052 561 256C560.98 241.108 556.803 226.518 548.94 213.871C541.078 201.225 529.841 191.023 516.496 184.416C523.077 174.748 527.202 163.622 528.512 152H553C555.122 152 557.157 151.157 558.657 149.657C560.157 148.157 561 146.122 561 144V78.864C568.541 76.9168 575.113 72.2862 579.485 65.8399C583.856 59.3937 585.726 51.5745 584.745 43.848C583.764 36.1215 579.998 29.0181 574.154 23.8694C568.31 18.7207 560.789 15.8801 553 15.8801C545.211 15.8801 537.69 18.7207 531.846 23.8694C526.002 29.0181 522.236 36.1215 521.255 43.848C520.274 51.5745 522.144 59.3937 526.515 65.8399C530.887 72.2862 537.459 76.9168 545 78.864V136H528.528C527.434 125.872 524.195 116.093 519.026 107.315C513.857 98.5363 506.877 90.9602 498.551 85.0909C490.224 79.2216 480.743 75.1939 470.738 73.2759C460.733 71.358 450.435 71.5939 440.528 73.968C440.432 72.856 440.488 71.76 440.328 70.648C438.214 56.645 431.536 43.7318 421.33 33.9137C411.124 24.0956 397.962 17.9221 383.888 16.352C370.377 14.8611 356.745 17.7497 345 24.592C333.248 17.7456 319.607 14.857 306.088 16.352C291.743 17.921 278.347 24.2856 268.069 34.4153C257.791 44.5451 251.233 57.8471 249.456 72.168C249.384 72.76 249.376 73.344 249.32 73.936C243.973 72.6636 238.496 72.0139 233 72V48C233 45.8783 232.157 43.8434 230.657 42.3431C229.157 40.8428 227.122 40 225 40H167.864C165.917 32.4587 161.286 25.8865 154.84 21.5152C148.394 17.1439 140.575 15.2736 132.848 16.255C125.121 17.2364 118.018 21.0021 112.869 26.8461C107.721 32.6902 104.88 40.2114 104.88 48C104.88 55.7886 107.721 63.3098 112.869 69.1539C118.018 74.9979 125.121 78.7635 132.848 79.7449C140.575 80.7263 148.394 78.8561 154.84 74.4848C161.286 70.1135 165.917 63.5413 167.864 56H217V73.856C205.573 76.4384 194.951 81.7765 186.059 89.4051C177.168 97.0338 170.278 106.721 165.989 117.623C161.7 128.525 160.142 140.311 161.452 151.953C162.762 163.595 166.9 174.74 173.504 184.416C160.158 191.023 148.922 201.225 141.06 213.871C133.197 226.518 129.02 241.108 129 256C128.975 267.052 131.268 277.987 135.733 288.098C140.198 298.208 146.734 307.27 154.92 314.696C153.656 319.018 153.01 323.497 153 328H137C134.878 328 132.843 328.843 131.343 330.343C129.843 331.843 129 333.878 129 336V433.136C121.459 435.083 114.886 439.714 110.515 446.16C106.144 452.606 104.274 460.426 105.255 468.152C106.236 475.879 110.002 482.982 115.846 488.131C121.69 493.279 129.211 496.12 137 496.12C144.789 496.12 152.31 493.279 158.154 488.131C163.998 482.982 167.764 475.879 168.745 468.152C169.726 460.426 167.856 452.606 163.485 446.16C159.114 439.714 152.541 435.083 145 433.136V344H155.8C159.106 353.35 165.226 361.446 173.32 367.176C181.413 372.906 191.083 375.989 201 376C201.216 376 201.392 375.944 201.608 375.944C202.742 383.924 205.587 391.565 209.95 398.343C214.313 405.121 220.09 410.875 226.884 415.211C233.679 419.548 241.33 422.364 249.315 423.467C257.3 424.569 265.428 423.933 273.144 421.6C273.144 422.4 273 423.2 273 424C273 443.096 280.586 461.409 294.088 474.912C307.591 488.414 325.904 496 345 496C364.096 496 382.409 488.414 395.912 474.912C409.414 461.409 417 443.096 417 424C417 423.2 416.888 422.4 416.864 421.6C422.096 423.187 427.533 423.995 433 424V464C433 466.122 433.843 468.157 435.343 469.657C436.843 471.157 438.878 472 441 472H522.136C523.642 477.78 526.74 483.023 531.076 487.131C535.412 491.24 540.813 494.051 546.666 495.244C552.519 496.437 558.59 495.966 564.188 493.882C569.787 491.799 574.689 488.188 578.338 483.458C581.987 478.729 584.237 473.071 584.832 467.127C585.428 461.183 584.344 455.192 581.706 449.833C579.067 444.474 574.978 439.962 569.904 436.81C564.83 433.657 558.974 431.991 553 432ZM537 48C537 44.8355 537.938 41.7421 539.696 39.1109C541.455 36.4797 543.953 34.4289 546.877 33.2179C549.801 32.0069 553.018 31.6901 556.121 32.3074C559.225 32.9248 562.076 34.4486 564.314 36.6863C566.551 38.9239 568.075 41.7749 568.693 44.8785C569.31 47.9822 568.993 51.1993 567.782 54.1229C566.571 57.0465 564.52 59.5454 561.889 61.3035C559.258 63.0616 556.164 64 553 64C548.757 64 544.687 62.3143 541.686 59.3137C538.686 56.3131 537 52.2435 537 48ZM137 64C133.835 64 130.742 63.0616 128.111 61.3035C125.48 59.5454 123.429 57.0465 122.218 54.1229C121.007 51.1993 120.69 47.9822 121.307 44.8785C121.925 41.7749 123.449 38.9239 125.686 36.6863C127.924 34.4486 130.775 32.9248 133.879 32.3074C136.982 31.6901 140.199 32.0069 143.123 33.2179C146.047 34.4289 148.545 36.4797 150.304 39.1109C152.062 41.7421 153 44.8355 153 48C153 52.2435 151.314 56.3131 148.314 59.3137C145.313 62.3143 141.243 64 137 64ZM153 464C153 467.164 152.062 470.258 150.304 472.889C148.545 475.52 146.047 477.571 143.123 478.782C140.199 479.993 136.982 480.31 133.879 479.693C130.775 479.075 127.924 477.551 125.686 475.314C123.449 473.076 121.925 470.225 121.307 467.121C120.69 464.018 121.007 460.801 122.218 457.877C123.429 454.953 125.48 452.455 128.111 450.696C130.742 448.938 133.835 448 137 448C141.243 448 145.313 449.686 148.314 452.686C151.314 455.687 153 459.757 153 464ZM412.2 402.152C411.945 401.944 411.678 401.752 411.4 401.576C406.504 398.469 402.353 394.321 399.242 389.428C396.131 384.535 394.136 379.016 393.4 373.264C393.137 371.522 393.003 369.762 393 368C393 365.878 392.157 363.843 390.657 362.343C389.157 360.843 387.122 360 385 360C382.878 360 380.843 360.843 379.343 362.343C377.843 363.843 377 365.878 377 368C376.993 370.511 377.173 373.019 377.536 375.504C378.515 382.928 380.995 390.075 384.824 396.51C388.653 402.945 393.751 408.534 399.808 412.936C400.58 416.574 400.979 420.281 401 424C401 438.852 395.1 453.096 384.598 463.598C374.096 474.1 359.852 480 345 480C330.148 480 315.904 474.1 305.402 463.598C294.9 453.096 289 438.852 289 424C289.023 420.306 289.417 416.623 290.176 413.008C297.244 407.822 302.993 401.046 306.958 393.227C310.923 385.408 312.993 376.767 313 368C313 365.878 312.157 363.843 310.657 362.343C309.157 360.843 307.122 360 305 360C302.878 360 300.843 360.843 299.343 362.343C297.843 363.843 297 365.878 297 368C296.919 373.253 295.803 378.438 293.718 383.26C291.633 388.082 288.618 392.446 284.846 396.103C281.074 399.759 276.619 402.637 271.735 404.572C266.85 406.507 261.633 407.461 256.38 407.38C251.127 407.299 245.942 406.183 241.12 404.098C236.298 402.013 231.934 398.998 228.277 395.226C224.621 391.454 221.743 386.999 219.808 382.115C217.873 377.23 216.919 372.013 217 366.76C217.67 356.135 222.409 346.178 230.233 338.958C238.058 331.739 248.364 327.814 259.008 328H273C283.605 327.987 293.772 323.769 301.27 316.27C308.769 308.772 312.987 298.605 313 288V280C313 277.878 312.157 275.843 310.657 274.343C309.157 272.843 307.122 272 305 272C302.878 272 300.843 272.843 299.343 274.343C297.843 275.843 297 277.878 297 280V288C297 294.365 294.471 300.47 289.971 304.971C285.47 309.471 279.365 312 273 312H259.008C245.318 311.905 232.039 316.67 221.534 325.448C211.029 334.226 203.979 346.447 201.64 359.936C201.408 359.936 201.232 360 201 360C195.408 359.982 189.919 358.495 185.083 355.687C180.247 352.878 176.235 348.848 173.448 344H185C187.122 344 189.157 343.157 190.657 341.657C192.157 340.157 193 338.122 193 336C193 333.878 192.157 331.843 190.657 330.343C189.157 328.843 187.122 328 185 328H169C169 319.513 172.371 311.374 178.373 305.373C184.374 299.371 192.513 296 201 296C203.122 296 205.157 295.157 206.657 293.657C208.157 292.157 209 290.122 209 288C209 285.878 208.157 283.843 206.657 282.343C205.157 280.843 203.122 280 201 280C193.467 280.007 186.042 281.79 179.327 285.204C172.612 288.618 166.797 293.566 162.352 299.648C151.175 287.868 144.962 272.238 145 256C145.021 242.547 149.275 229.441 157.161 218.541C165.047 207.641 176.164 199.5 188.936 195.272C189.064 195.224 189.192 195.184 189.32 195.128C200.163 191.603 211.752 191.046 222.883 193.515C234.014 195.984 244.281 201.389 252.616 209.168C253.379 209.911 254.284 210.493 255.275 210.882C256.267 211.271 257.326 211.457 258.391 211.431C259.456 211.405 260.505 211.167 261.476 210.73C262.447 210.293 263.322 209.666 264.048 208.887C264.774 208.108 265.337 207.191 265.704 206.191C266.071 205.192 266.235 204.128 266.186 203.065C266.137 202.001 265.876 200.957 265.418 199.995C264.96 199.034 264.315 198.173 263.52 197.464C253.713 188.266 241.729 181.712 228.694 178.417C215.659 175.121 202 175.192 189 178.624C183.353 171.451 179.548 163.005 177.915 154.024C176.283 145.042 176.873 135.798 179.635 127.096C182.396 118.395 187.245 110.502 193.758 104.106C200.271 97.7094 208.25 93.0039 217 90.4V144C217 146.122 217.843 148.157 219.343 149.657C220.843 151.157 222.878 152 225 152C227.122 152 229.157 151.157 230.657 149.657C232.157 148.157 233 146.122 233 144V88C238.772 87.9955 244.509 88.8999 250 90.68C251.836 101.463 256.396 111.599 263.248 120.125C270.1 128.652 279.016 135.287 289.152 139.4C293.685 141.054 297.618 144.029 300.443 147.94C303.268 151.852 304.855 156.521 305 161.344V176C305 178.122 305.843 180.157 307.343 181.657C308.843 183.157 310.878 184 313 184C315.122 184 317.157 183.157 318.657 181.657C320.157 180.157 321 178.122 321 176V161.344C320.874 153.322 318.339 145.523 313.724 138.961C309.109 132.398 302.627 127.375 295.12 124.544C285.18 120.566 276.855 113.378 271.469 104.125C266.084 94.8711 263.947 84.0824 265.398 73.4745C266.849 62.8665 271.805 53.0482 279.478 45.581C287.151 38.1138 297.1 33.4263 307.744 32.264C319.295 30.9726 330.919 33.9519 340.424 40.64C341.766 41.5761 343.363 42.078 345 42.078C346.637 42.078 348.234 41.5761 349.576 40.64C355.021 36.8267 361.199 34.1861 367.719 32.8855C374.238 31.585 380.956 31.6528 387.448 33.0846C393.94 34.5165 400.064 37.2812 405.431 41.2036C410.798 45.1259 415.292 50.1204 418.628 55.8706C421.964 61.6207 424.069 68.0011 424.81 74.6075C425.551 81.2138 424.912 87.9021 422.933 94.2484C420.954 100.595 417.678 106.461 413.313 111.475C408.948 116.489 403.589 120.541 397.576 123.376C395.659 124.288 394.183 125.925 393.473 127.925C392.762 129.926 392.876 132.127 393.788 134.044C394.7 135.961 396.337 137.437 398.337 138.147C400.338 138.858 402.539 138.744 404.456 137.832C413.758 133.42 421.855 126.823 428.055 118.604C434.256 110.385 438.376 100.788 440.064 90.632C445.537 88.8741 451.252 87.986 457 88C470.455 88.0158 483.454 92.8753 493.62 101.689C503.785 110.504 510.438 122.683 512.36 136H457C454.878 136 452.843 136.843 451.343 138.343C449.843 139.843 449 141.878 449 144C449 146.122 449.843 148.157 451.343 149.657C452.843 151.157 454.878 152 457 152H512.368C510.975 161.717 507.055 170.898 501 178.624C488.002 175.195 474.347 175.126 461.315 178.421C448.283 181.716 436.302 188.269 426.496 197.464C425.701 198.173 425.056 199.034 424.598 199.995C424.141 200.957 423.879 202.001 423.83 203.065C423.781 204.128 423.945 205.192 424.312 206.191C424.679 207.191 425.242 208.108 425.968 208.887C426.694 209.666 427.569 210.293 428.54 210.73C429.511 211.167 430.56 211.405 431.625 211.431C432.69 211.457 433.749 211.271 434.741 210.882C435.732 210.493 436.637 209.911 437.4 209.168C445.735 201.389 456.002 195.984 467.133 193.515C478.264 191.046 489.853 191.603 500.696 195.128C500.824 195.184 500.952 195.224 501.088 195.272C513.855 199.505 524.966 207.648 532.847 218.548C540.728 229.447 544.98 242.55 545 256C545.036 272.239 538.819 287.869 527.64 299.648C523.197 293.566 517.383 288.617 510.67 285.203C503.956 281.789 496.532 280.007 489 280C486.878 280 484.843 280.843 483.343 282.343C481.843 283.843 481 285.878 481 288C481 290.122 481.843 292.157 483.343 293.657C484.843 295.157 486.878 296 489 296C497.487 296 505.626 299.371 511.627 305.373C517.629 311.374 521 319.513 521 328C521 336.487 517.629 344.626 511.627 350.627C505.626 356.629 497.487 360 489 360C488.776 360 488.608 359.944 488.384 359.936C486.037 346.448 478.983 334.23 468.476 325.453C457.969 316.676 444.69 311.909 431 312H417C414.878 312 412.843 312.843 411.343 314.343C409.843 315.843 409 317.878 409 320C409 322.122 409.843 324.157 411.343 325.657C412.843 327.157 414.878 328 417 328H431C441.647 327.821 451.953 331.752 459.776 338.977C467.598 346.202 472.335 356.164 473 366.792C473 366.856 473 366.92 473 366.984C473 367.048 473 367.128 473 367.2V367.24C473.169 375.154 470.976 382.939 466.701 389.602C462.427 396.264 456.264 401.503 449 404.648V376C449 373.878 448.157 371.843 446.657 370.343C445.157 368.843 443.122 368 441 368C438.878 368 436.843 368.843 435.343 370.343C433.843 371.843 433 373.878 433 376V408C425.66 408.009 418.46 405.985 412.2 402.152ZM553 480C549.836 480 546.742 479.062 544.111 477.304C541.48 475.545 539.429 473.047 538.218 470.123C537.007 467.199 536.69 463.982 537.307 460.879C537.925 457.775 539.449 454.924 541.686 452.686C543.924 450.449 546.775 448.925 549.879 448.307C552.982 447.69 556.199 448.007 559.123 449.218C562.047 450.429 564.545 452.48 566.304 455.111C568.062 457.742 569 460.836 569 464C569 468.243 567.314 472.313 564.314 475.314C561.313 478.314 557.243 480 553 480Z" fill="white"/>
</mask>
<g mask="url(#mask0)">
<path d="M553 432C545.926 432.027 539.061 434.396 533.477 438.738C527.892 443.081 523.904 449.151 522.136 456H449V421.672C459.246 418.621 468.404 412.698 475.388 404.604C482.373 396.509 486.891 386.583 488.408 376C488.608 376 488.8 376 489 376C496.445 376.017 503.792 374.299 510.457 370.98C517.121 367.662 522.921 362.835 527.394 356.883C531.867 350.932 534.891 344.019 536.225 336.694C537.559 329.37 537.167 321.835 535.08 314.688C543.268 307.265 549.806 298.205 554.271 288.096C558.736 277.986 561.028 267.052 561 256C560.98 241.108 556.803 226.518 548.94 213.871C541.078 201.225 529.841 191.023 516.496 184.416C523.077 174.748 527.202 163.622 528.512 152H553C555.122 152 557.157 151.157 558.657 149.657C560.157 148.157 561 146.122 561 144V78.864C568.541 76.9168 575.113 72.2862 579.485 65.8399C583.856 59.3937 585.726 51.5745 584.745 43.848C583.764 36.1215 579.998 29.0181 574.154 23.8694C568.31 18.7207 560.789 15.8801 553 15.8801C545.211 15.8801 537.69 18.7207 531.846 23.8694C526.002 29.0181 522.236 36.1215 521.255 43.848C520.274 51.5745 522.144 59.3937 526.515 65.8399C530.887 72.2862 537.459 76.9168 545 78.864V136H528.528C527.434 125.872 524.195 116.093 519.026 107.315C513.857 98.5363 506.877 90.9602 498.551 85.0909C490.224 79.2216 480.743 75.1939 470.738 73.2759C460.733 71.358 450.435 71.5939 440.528 73.968C440.432 72.856 440.488 71.76 440.328 70.648C438.214 56.645 431.536 43.7318 421.33 33.9137C411.124 24.0956 397.962 17.9221 383.888 16.352C370.377 14.8611 356.745 17.7497 345 24.592C333.248 17.7456 319.607 14.857 306.088 16.352C291.743 17.921 278.347 24.2856 268.069 34.4153C257.791 44.5451 251.233 57.8471 249.456 72.168C249.384 72.76 249.376 73.344 249.32 73.936C243.973 72.6636 238.496 72.0139 233 72V48C233 45.8783 232.157 43.8434 230.657 42.3431C229.157 40.8428 227.122 40 225 40H167.864C165.917 32.4587 161.286 25.8865 154.84 21.5152C148.394 17.1439 140.575 15.2736 132.848 16.255C125.121 17.2364 118.018 21.0021 112.869 26.8461C107.721 32.6902 104.88 40.2114 104.88 48C104.88 55.7886 107.721 63.3098 112.869 69.1539C118.018 74.9979 125.121 78.7635 132.848 79.7449C140.575 80.7263 148.394 78.8561 154.84 74.4848C161.286 70.1135 165.917 63.5413 167.864 56H217V73.856C205.573 76.4384 194.951 81.7765 186.059 89.4051C177.168 97.0338 170.278 106.721 165.989 117.623C161.7 128.525 160.142 140.311 161.452 151.953C162.762 163.595 166.9 174.74 173.504 184.416C160.158 191.023 148.922 201.225 141.06 213.871C133.197 226.518 129.02 241.108 129 256C128.975 267.052 131.268 277.987 135.733 288.098C140.198 298.208 146.734 307.27 154.92 314.696C153.656 319.018 153.01 323.497 153 328H137C134.878 328 132.843 328.843 131.343 330.343C129.843 331.843 129 333.878 129 336V433.136C121.459 435.083 114.886 439.714 110.515 446.16C106.144 452.606 104.274 460.426 105.255 468.152C106.236 475.879 110.002 482.982 115.846 488.131C121.69 493.279 129.211 496.12 137 496.12C144.789 496.12 152.31 493.279 158.154 488.131C163.998 482.982 167.764 475.879 168.745 468.152C169.726 460.426 167.856 452.606 163.485 446.16C159.114 439.714 152.541 435.083 145 433.136V344H155.8C159.106 353.35 165.226 361.446 173.32 367.176C181.413 372.906 191.083 375.989 201 376C201.216 376 201.392 375.944 201.608 375.944C202.742 383.924 205.587 391.565 209.95 398.343C214.313 405.121 220.09 410.875 226.884 415.211C233.679 419.548 241.33 422.364 249.315 423.467C257.3 424.569 265.428 423.933 273.144 421.6C273.144 422.4 273 423.2 273 424C273 443.096 280.586 461.409 294.088 474.912C307.591 488.414 325.904 496 345 496C364.096 496 382.409 488.414 395.912 474.912C409.414 461.409 417 443.096 417 424C417 423.2 416.888 422.4 416.864 421.6C422.096 423.187 427.533 423.995 433 424V464C433 466.122 433.843 468.157 435.343 469.657C436.843 471.157 438.878 472 441 472H522.136C523.642 477.78 526.74 483.023 531.076 487.131C535.412 491.24 540.813 494.051 546.666 495.244C552.519 496.437 558.59 495.966 564.188 493.882C569.787 491.799 574.689 488.188 578.338 483.458C581.987 478.729 584.237 473.071 584.832 467.127C585.428 461.183 584.344 455.192 581.706 449.833C579.067 444.474 574.978 439.962 569.904 436.81C564.83 433.657 558.974 431.991 553 432ZM537 48C537 44.8355 537.938 41.7421 539.696 39.1109C541.455 36.4797 543.953 34.4289 546.877 33.2179C549.801 32.0069 553.018 31.6901 556.121 32.3074C559.225 32.9248 562.076 34.4486 564.314 36.6863C566.551 38.9239 568.075 41.7749 568.693 44.8785C569.31 47.9822 568.993 51.1993 567.782 54.1229C566.571 57.0465 564.52 59.5454 561.889 61.3035C559.258 63.0616 556.164 64 553 64C548.757 64 544.687 62.3143 541.686 59.3137C538.686 56.3131 537 52.2435 537 48ZM137 64C133.835 64 130.742 63.0616 128.111 61.3035C125.48 59.5454 123.429 57.0465 122.218 54.1229C121.007 51.1993 120.69 47.9822 121.307 44.8785C121.925 41.7749 123.449 38.9239 125.686 36.6863C127.924 34.4486 130.775 32.9248 133.879 32.3074C136.982 31.6901 140.199 32.0069 143.123 33.2179C146.047 34.4289 148.545 36.4797 150.304 39.1109C152.062 41.7421 153 44.8355 153 48C153 52.2435 151.314 56.3131 148.314 59.3137C145.313 62.3143 141.243 64 137 64ZM153 464C153 467.164 152.062 470.258 150.304 472.889C148.545 475.52 146.047 477.571 143.123 478.782C140.199 479.993 136.982 480.31 133.879 479.693C130.775 479.075 127.924 477.551 125.686 475.314C123.449 473.076 121.925 470.225 121.307 467.121C120.69 464.018 121.007 460.801 122.218 457.877C123.429 454.953 125.48 452.455 128.111 450.696C130.742 448.938 133.835 448 137 448C141.243 448 145.313 449.686 148.314 452.686C151.314 455.687 153 459.757 153 464ZM412.2 402.152C411.945 401.944 411.678 401.752 411.4 401.576C406.504 398.469 402.353 394.321 399.242 389.428C396.131 384.535 394.136 379.016 393.4 373.264C393.137 371.522 393.003 369.762 393 368C393 365.878 392.157 363.843 390.657 362.343C389.157 360.843 387.122 360 385 360C382.878 360 380.843 360.843 379.343 362.343C377.843 363.843 377 365.878 377 368C376.993 370.511 377.173 373.019 377.536 375.504C378.515 382.928 380.995 390.075 384.824 396.51C388.653 402.945 393.751 408.534 399.808 412.936C400.58 416.574 400.979 420.281 401 424C401 438.852 395.1 453.096 384.598 463.598C374.096 474.1 359.852 480 345 480C330.148 480 315.904 474.1 305.402 463.598C294.9 453.096 289 438.852 289 424C289.023 420.306 289.417 416.623 290.176 413.008C297.244 407.822 302.993 401.046 306.958 393.227C310.923 385.408 312.993 376.767 313 368C313 365.878 312.157 363.843 310.657 362.343C309.157 360.843 307.122 360 305 360C302.878 360 300.843 360.843 299.343 362.343C297.843 363.843 297 365.878 297 368C296.919 373.253 295.803 378.438 293.718 383.26C291.633 388.082 288.618 392.446 284.846 396.103C281.074 399.759 276.619 402.637 271.735 404.572C266.85 406.507 261.633 407.461 256.38 407.38C251.127 407.299 245.942 406.183 241.12 404.098C236.298 402.013 231.934 398.998 228.277 395.226C224.621 391.454 221.743 386.999 219.808 382.115C217.873 377.23 216.919 372.013 217 366.76C217.67 356.135 222.409 346.178 230.233 338.958C238.058 331.739 248.364 327.814 259.008 328H273C283.605 327.987 293.772 323.769 301.27 316.27C308.769 308.772 312.987 298.605 313 288V280C313 277.878 312.157 275.843 310.657 274.343C309.157 272.843 307.122 272 305 272C302.878 272 300.843 272.843 299.343 274.343C297.843 275.843 297 277.878 297 280V288C297 294.365 294.471 300.47 289.971 304.971C285.47 309.471 279.365 312 273 312H259.008C245.318 311.905 232.039 316.67 221.534 325.448C211.029 334.226 203.979 346.447 201.64 359.936C201.408 359.936 201.232 360 201 360C195.408 359.982 189.919 358.495 185.083 355.687C180.247 352.878 176.235 348.848 173.448 344H185C187.122 344 189.157 343.157 190.657 341.657C192.157 340.157 193 338.122 193 336C193 333.878 192.157 331.843 190.657 330.343C189.157 328.843 187.122 328 185 328H169C169 319.513 172.371 311.374 178.373 305.373C184.374 299.371 192.513 296 201 296C203.122 296 205.157 295.157 206.657 293.657C208.157 292.157 209 290.122 209 288C209 285.878 208.157 283.843 206.657 282.343C205.157 280.843 203.122 280 201 280C193.467 280.007 186.042 281.79 179.327 285.204C172.612 288.618 166.797 293.566 162.352 299.648C151.175 287.868 144.962 272.238 145 256C145.021 242.547 149.275 229.441 157.161 218.541C165.047 207.641 176.164 199.5 188.936 195.272C189.064 195.224 189.192 195.184 189.32 195.128C200.163 191.603 211.752 191.046 222.883 193.515C234.014 195.984 244.281 201.389 252.616 209.168C253.379 209.911 254.284 210.493 255.275 210.882C256.267 211.271 257.326 211.457 258.391 211.431C259.456 211.405 260.505 211.167 261.476 210.73C262.447 210.293 263.322 209.666 264.048 208.887C264.774 208.108 265.337 207.191 265.704 206.191C266.071 205.192 266.235 204.128 266.186 203.065C266.137 202.001 265.876 200.957 265.418 199.995C264.96 199.034 264.315 198.173 263.52 197.464C253.713 188.266 241.729 181.712 228.694 178.417C215.659 175.121 202 175.192 189 178.624C183.353 171.451 179.548 163.005 177.915 154.024C176.283 145.042 176.873 135.798 179.635 127.096C182.396 118.395 187.245 110.502 193.758 104.106C200.271 97.7094 208.25 93.0039 217 90.4V144C217 146.122 217.843 148.157 219.343 149.657C220.843 151.157 222.878 152 225 152C227.122 152 229.157 151.157 230.657 149.657C232.157 148.157 233 146.122 233 144V88C238.772 87.9955 244.509 88.8999 250 90.68C251.836 101.463 256.396 111.599 263.248 120.125C270.1 128.652 279.016 135.287 289.152 139.4C293.685 141.054 297.618 144.029 300.443 147.94C303.268 151.852 304.855 156.521 305 161.344V176C305 178.122 305.843 180.157 307.343 181.657C308.843 183.157 310.878 184 313 184C315.122 184 317.157 183.157 318.657 181.657C320.157 180.157 321 178.122 321 176V161.344C320.874 153.322 318.339 145.523 313.724 138.961C309.109 132.398 302.627 127.375 295.12 124.544C285.18 120.566 276.855 113.378 271.469 104.125C266.084 94.8711 263.947 84.0824 265.398 73.4745C266.849 62.8665 271.805 53.0482 279.478 45.581C287.151 38.1138 297.1 33.4263 307.744 32.264C319.295 30.9726 330.919 33.9519 340.424 40.64C341.766 41.5761 343.363 42.078 345 42.078C346.637 42.078 348.234 41.5761 349.576 40.64C355.021 36.8267 361.199 34.1861 367.719 32.8855C374.238 31.585 380.956 31.6528 387.448 33.0846C393.94 34.5165 400.064 37.2812 405.431 41.2036C410.798 45.1259 415.292 50.1204 418.628 55.8706C421.964 61.6207 424.069 68.0011 424.81 74.6075C425.551 81.2138 424.912 87.9021 422.933 94.2484C420.954 100.595 417.678 106.461 413.313 111.475C408.948 116.489 403.589 120.541 397.576 123.376C395.659 124.288 394.183 125.925 393.473 127.925C392.762 129.926 392.876 132.127 393.788 134.044C394.7 135.961 396.337 137.437 398.337 138.147C400.338 138.858 402.539 138.744 404.456 137.832C413.758 133.42 421.855 126.823 428.055 118.604C434.256 110.385 438.376 100.788 440.064 90.632C445.537 88.8741 451.252 87.986 457 88C470.455 88.0158 483.454 92.8753 493.62 101.689C503.785 110.504 510.438 122.683 512.36 136H457C454.878 136 452.843 136.843 451.343 138.343C449.843 139.843 449 141.878 449 144C449 146.122 449.843 148.157 451.343 149.657C452.843 151.157 454.878 152 457 152H512.368C510.975 161.717 507.055 170.898 501 178.624C488.002 175.195 474.347 175.126 461.315 178.421C448.283 181.716 436.302 188.269 426.496 197.464C425.701 198.173 425.056 199.034 424.598 199.995C424.141 200.957 423.879 202.001 423.83 203.065C423.781 204.128 423.945 205.192 424.312 206.191C424.679 207.191 425.242 208.108 425.968 208.887C426.694 209.666 427.569 210.293 428.54 210.73C429.511 211.167 430.56 211.405 431.625 211.431C432.69 211.457 433.749 211.271 434.741 210.882C435.732 210.493 436.637 209.911 437.4 209.168C445.735 201.389 456.002 195.984 467.133 193.515C478.264 191.046 489.853 191.603 500.696 195.128C500.824 195.184 500.952 195.224 501.088 195.272C513.855 199.505 524.966 207.648 532.847 218.548C540.728 229.447 544.98 242.55 545 256C545.036 272.239 538.819 287.869 527.64 299.648C523.197 293.566 517.383 288.617 510.67 285.203C503.956 281.789 496.532 280.007 489 280C486.878 280 484.843 280.843 483.343 282.343C481.843 283.843 481 285.878 481 288C481 290.122 481.843 292.157 483.343 293.657C484.843 295.157 486.878 296 489 296C497.487 296 505.626 299.371 511.627 305.373C517.629 311.374 521 319.513 521 328C521 336.487 517.629 344.626 511.627 350.627C505.626 356.629 497.487 360 489 360C488.776 360 488.608 359.944 488.384 359.936C486.037 346.448 478.983 334.23 468.476 325.453C457.969 316.676 444.69 311.909 431 312H417C414.878 312 412.843 312.843 411.343 314.343C409.843 315.843 409 317.878 409 320C409 322.122 409.843 324.157 411.343 325.657C412.843 327.157 414.878 328 417 328H431C441.647 327.821 451.953 331.752 459.776 338.977C467.598 346.202 472.335 356.164 473 366.792C473 366.856 473 366.92 473 366.984C473 367.048 473 367.128 473 367.2V367.24C473.169 375.154 470.976 382.939 466.701 389.602C462.427 396.264 456.264 401.503 449 404.648V376C449 373.878 448.157 371.843 446.657 370.343C445.157 368.843 443.122 368 441 368C438.878 368 436.843 368.843 435.343 370.343C433.843 371.843 433 373.878 433 376V408C425.66 408.009 418.46 405.985 412.2 402.152ZM553 480C549.836 480 546.742 479.062 544.111 477.304C541.48 475.545 539.429 473.047 538.218 470.123C537.007 467.199 536.69 463.982 537.307 460.879C537.925 457.775 539.449 454.924 541.686 452.686C543.924 450.449 546.775 448.925 549.879 448.307C552.982 447.69 556.199 448.007 559.123 449.218C562.047 450.429 564.545 452.48 566.304 455.111C568.062 457.742 569 460.836 569 464C569 468.243 567.314 472.313 564.314 475.314C561.313 478.314 557.243 480 553 480Z" stroke="black" stroke-width="16"/>
<path d="M298.858 94.1421C302.609 97.8929 307.696 100 313 100C314.061 100 315.078 100.421 315.828 101.172C316.579 101.922 317 102.939 317 104C317 105.061 316.579 106.078 315.828 106.828C315.078 107.579 314.061 108 313 108C305.574 108 298.452 105.05 293.201 99.799C287.95 94.548 285 87.4261 285 80C285 78.9391 285.421 77.9217 286.172 77.1716C286.922 76.4214 287.939 76 289 76C290.061 76 291.078 76.4214 291.828 77.1716C292.579 77.9217 293 78.9391 293 80C293 85.3043 295.107 90.3914 298.858 94.1421Z" stroke="black" stroke-width="8"/>
<path d="M503.142 233.858C499.391 230.107 494.304 228 489 228C487.939 228 486.922 227.579 486.172 226.828C485.421 226.078 485 225.061 485 224C485 222.939 485.421 221.922 486.172 221.172C486.922 220.421 487.939 220 489 220C496.426 220 503.548 222.95 508.799 228.201C514.05 233.452 517 240.574 517 248C517 249.061 516.579 250.078 515.828 250.828C515.078 251.579 514.061 252 513 252C511.939 252 510.922 251.579 510.172 250.828C509.421 250.078 509 249.061 509 248C509 242.696 506.893 237.609 503.142 233.858Z" stroke="black" stroke-width="8"/>
<path d="M342.172 445.172C342.922 444.421 343.939 444 345 444C346.061 444 347.078 444.421 347.828 445.172C348.579 445.922 349 446.939 349 448V456C349 457.061 348.579 458.078 347.828 458.828C347.078 459.579 346.061 460 345 460C343.939 460 342.922 459.579 342.172 458.828C341.421 458.078 341 457.061 341 456V448C341 446.939 341.421 445.922 342.172 445.172Z" stroke="black" stroke-width="8"/>
</g>
</svg>
